<svg xmlns="http://www.w3.org/2000/svg" width="1800" height="1510" viewBox="0 0 1800 1510" role="img" aria-labelledby="title desc">
  <title id="title">Attestor Internal Machine Map</title>
  <desc id="desc">Dark system-design graph of Attestor. Includes Callers, Route Lanes, And Runtime Ingress, Core route group, Public site and proof route group, Auth and account route group, Admin and operator route group, Pipeline route group, Admission and shadow route group, Webhook route group, Ten Decision Axes Applied To The Same Candidate, Policy Control Plane, Release PDP, Domain Packs Into Admission PDP, Admission PDP, Enforcement PEP, Customer Gate, Terminal Outcomes, Shared Stores, Support Surfaces, Shadow-To-Policy Loop, PROCEED, HOLD, and all top-level src directories: src/api src/connectors src/consequence-admission src/crypto-authorization-core src/crypto-execution-admission src/crypto-intelligence src/domains src/filing src/financial src/identity src/platform src/proof-surface src/release-enforcement-plane src/release-kernel src/release-layer src/release-policy-control-plane src/service src/showcase src/signing src/utils.</desc>
  <defs>
    <marker id="arrow" viewBox="0 0 10 10" refX="9" refY="5" markerWidth="7" markerHeight="7" orient="auto-start-reverse">
      <path d="M 0 0 L 10 5 L 0 10 z" fill="#dbeafe"/>
    </marker>
    <style>
      .page { fill: #07101d; }
      .title { font: 700 30px Arial, Helvetica, sans-serif; fill: #f8fdff; }
      .subtitle { font: 400 14px Arial, Helvetica, sans-serif; fill: #b8d7e6; }
      .label { font: 700 12.8px Arial, Helvetica, sans-serif; fill: #f8fdff; }
      .body { font: 400 11.5px Arial, Helvetica, sans-serif; fill: #dbeafe; }
      .tiny { font: 400 10px Arial, Helvetica, sans-serif; fill: #a9c3d3; }
      .nodeGreen { fill: #12351f; stroke: #64d487; stroke-width: 1.25; rx: 8; }
      .nodeBlue { fill: #0c3554; stroke: #61c7f2; stroke-width: 1.35; rx: 8; }
      .nodeBlue2 { fill: #0b2a43; stroke: #57afd7; stroke-width: 1.2; rx: 8; }
      .nodeYellow { fill: #3a2f0d; stroke: #f4c542; stroke-width: 1.2; rx: 8; }
      .nodeRed { fill: #4c2119; stroke: #ff8f79; stroke-width: 1.3; rx: 6; }
      .nodeGray { fill: #101827; stroke: #8798ad; stroke-width: 1.15; rx: 8; }
      .decision { fill: #541721; stroke: #ff9a8f; stroke-width: 1.35; }
      .bus { fill: #f8fdff; stroke: #f8fdff; stroke-width: 1; }
      .arrow { stroke: #dbeafe; stroke-width: 1.45; fill: none; marker-end: url(#arrow); }
      .thinArrow { stroke: #b8d7e6; stroke-width: 1.1; fill: none; marker-end: url(#arrow); }
      .dash { stroke: #9ca3af; stroke-width: 1.1; fill: none; stroke-dasharray: 7 6; marker-end: url(#arrow); }
      .soft { stroke: #32536b; stroke-width: 1; fill: none; }
      .proceed { fill: #0f7a4f; stroke: #75e0ae; stroke-width: 1.6; rx: 10; }
      .hold { fill: #9b1c1c; stroke: #ff9a8f; stroke-width: 1.6; rx: 10; }
      .termText { font: 700 18px Arial, Helvetica, sans-serif; fill: #ffffff; }
      .chip { fill: #101827; stroke: #8798ad; stroke-width: 1; rx: 7; }
    </style>
  </defs>

  <rect class="page" x="0" y="0" width="1800" height="1510"/>
  <text class="title" x="36" y="48">Attestor Internal Machine Map</text>
  <text class="subtitle" x="36" y="74">Dark system-design graph: route lanes and ten dimensions converge into one candidate context, then release, admission, enforcement, customer gate, and PROCEED/HOLD.</text>

  <text class="label" x="42" y="116">Callers</text>
  <rect class="nodeGreen" x="36" y="132" width="176" height="58"/>
  <text class="label" x="54" y="157">AI agent / app</text>
  <text class="body" x="54" y="176">proposed consequence</text>
  <rect class="nodeGreen" x="36" y="218" width="176" height="58"/>
  <text class="label" x="54" y="243">Operator / reviewer</text>
  <text class="body" x="54" y="262">human authority</text>
  <rect class="nodeGreen" x="36" y="304" width="176" height="58"/>
  <text class="label" x="54" y="329">LLM / package caller</text>
  <text class="body" x="54" y="348">provider or SDK edge</text>

  <rect class="bus" x="258" y="126" width="14" height="254"/>
  <text class="tiny" x="238" y="112">ingress bus</text>
  <path class="arrow" d="M212 161 H258"/>
  <path class="arrow" d="M212 247 H258"/>
  <path class="arrow" d="M212 333 H258"/>

  <text class="label" x="318" y="116">Callers, Route Lanes, And Runtime Ingress</text>
  <rect class="nodeBlue" x="314" y="132" width="220" height="58"/>
  <text class="label" x="334" y="157">Service Ingress</text>
  <text class="body" x="334" y="176">tenant, actor, account context</text>
  <polygon class="decision" points="424,220 532,260 424,300 316,260"/>
  <text class="label" x="390" y="256">Entry path</text>
  <text class="tiny" x="392" y="272">route lane?</text>
  <rect class="nodeBlue2" x="314" y="330" width="220" height="58"/>
  <text class="label" x="334" y="355">Candidate builder</text>
  <text class="body" x="334" y="374">normalizes route and request</text>
  <path class="arrow" d="M272 161 H314"/>
  <path class="arrow" d="M424 190 V220"/>
  <path class="arrow" d="M424 300 V330"/>

  <text class="label" x="590" y="116">Route lane fan-in</text>
  <rect class="nodeBlue2" x="590" y="132" width="196" height="42"/><text class="label" x="610" y="159">Core route group</text>
  <rect class="nodeBlue2" x="818" y="132" width="228" height="42"/><text class="label" x="836" y="159">Public site and proof route group</text>
  <rect class="nodeBlue2" x="590" y="190" width="196" height="42"/><text class="label" x="610" y="217">Auth and account route group</text>
  <rect class="nodeBlue2" x="818" y="190" width="228" height="42"/><text class="label" x="836" y="217">Admin and operator route group</text>
  <rect class="nodeBlue2" x="590" y="248" width="196" height="42"/><text class="label" x="610" y="275">Pipeline route group</text>
  <rect class="nodeBlue2" x="818" y="248" width="228" height="42"/><text class="label" x="836" y="275">Admission and shadow route group</text>
  <rect class="nodeBlue2" x="590" y="306" width="196" height="42"/><text class="label" x="610" y="333">Webhook route group</text>
  <rect class="nodeBlue2" x="818" y="306" width="228" height="42"/><text class="label" x="836" y="333">release-layer caller</text>
  <path class="arrow" d="M590 359 H534"/>

  <text class="label" x="1118" y="116">Ten Decision Axes Applied To The Same Candidate</text>
  <rect class="nodeYellow" x="1120" y="132" width="96" height="42"/><text class="label" x="1148" y="159">Time</text>
  <rect class="nodeYellow" x="1232" y="132" width="100" height="42"/><text class="label" x="1256" y="159">Identity</text>
  <rect class="nodeYellow" x="1348" y="132" width="100" height="42"/><text class="label" x="1370" y="159">Content</text>
  <rect class="nodeYellow" x="1464" y="132" width="100" height="42"/><text class="label" x="1486" y="159">Evidence</text>
  <rect class="nodeYellow" x="1580" y="132" width="88" height="42"/><text class="label" x="1608" y="159">Risk</text>
  <rect class="nodeYellow" x="1120" y="196" width="126" height="42"/><text class="label" x="1140" y="223">Scope / intent</text>
  <rect class="nodeYellow" x="1262" y="196" width="100" height="42"/><text class="label" x="1286" y="223">Rollout</text>
  <rect class="nodeYellow" x="1378" y="196" width="130" height="42"/><text class="label" x="1402" y="223">Consequence</text>
  <rect class="nodeYellow" x="1524" y="196" width="100" height="42"/><text class="label" x="1552" y="223">Human</text>
  <rect class="nodeYellow" x="1120" y="260" width="126" height="42"/><text class="label" x="1144" y="287">Cryptography</text>
  <rect class="nodeBlue" x="1280" y="278" width="390" height="64"/>
  <text class="label" x="1302" y="306">Ten-axis Candidate Context</text>
  <text class="body" x="1302" y="324">one candidate, ten dimensions, one fan-in</text>

  <path class="thinArrow" d="M1046 327 C1115 327 1195 306 1280 306"/>
  <path class="thinArrow" d="M1120 153 C1090 200 1192 250 1280 306"/>
  <path class="thinArrow" d="M1475 342 V440"/>

  <text class="label" x="62" y="466">Policy Control Plane</text>
  <rect class="nodeRed" x="60" y="490" width="188" height="58"/>
  <text class="label" x="82" y="516">Policy bundles</text>
  <text class="body" x="82" y="534">signed, scoped, activated</text>
  <rect class="nodeRed" x="280" y="490" width="188" height="58"/>
  <text class="label" x="302" y="516">Signer / KMS edge</text>
  <text class="body" x="302" y="534">key boundary evidence</text>
  <polygon class="decision" points="264,586 392,628 264,670 136,628"/>
  <text class="label" x="206" y="624">Policy resolution</text>
  <text class="tiny" x="210" y="640">active scope?</text>
  <polygon class="decision" points="264,708 392,750 264,792 136,750"/>
  <text class="label" x="204" y="746">Rollout resolution</text>
  <text class="tiny" x="206" y="762">shadow / enforce?</text>
  <polygon class="decision" points="264,830 392,872 264,914 136,872"/>
  <text class="label" x="194" y="868">Deterministic checks</text>
  <text class="tiny" x="216" y="884">risk controls?</text>
  <polygon class="decision" points="264,952 392,994 264,1036 136,994"/>
  <text class="label" x="208" y="990">ReleaseDecision</text>
  <rect class="nodeBlue" x="60" y="1082" width="408" height="58"/>
  <text class="label" x="82" y="1108">Release PDP</text>
  <text class="body" x="82" y="1126">accepted / denied / hold / review / expired / revoked / overridden</text>

  <path class="arrow" d="M1475 440 C1320 452 264 452 264 490"/>
  <path class="arrow" d="M264 548 V586"/>
  <path class="arrow" d="M264 670 V708"/>
  <path class="arrow" d="M264 792 V830"/>
  <path class="arrow" d="M264 914 V952"/>
  <path class="arrow" d="M264 1036 V1082"/>

  <text class="label" x="610" y="466">Domain Packs Into Admission PDP</text>
  <rect class="nodeYellow" x="610" y="490" width="168" height="48"/><text class="label" x="636" y="520">Finance pack</text>
  <rect class="nodeYellow" x="810" y="490" width="104" height="48"/><text class="label" x="836" y="520">Filing</text>
  <rect class="nodeYellow" x="946" y="490" width="110" height="48"/><text class="label" x="970" y="520">Crypto</text>
  <polygon class="decision" points="836,586 972,628 836,670 700,628"/>
  <text class="label" x="754" y="624">Admission mode ladder</text>
  <polygon class="decision" points="836,708 972,750 836,792 700,750"/>
  <text class="label" x="740" y="746">Required admission checks</text>
  <text class="tiny" x="748" y="762">policy / authority / evidence</text>
  <polygon class="decision" points="836,830 972,872 836,914 700,872"/>
  <text class="label" x="770" y="868">Canonical decision</text>
  <text class="tiny" x="756" y="884">admit / narrow / review / block</text>
  <polygon class="decision" points="836,952 972,994 836,1036 700,994"/>
  <text class="label" x="746" y="990">Protected token required?</text>
  <rect class="nodeBlue" x="610" y="1082" width="452" height="58"/>
  <text class="label" x="632" y="1108">Admission PDP</text>
  <text class="body" x="632" y="1126">canonical response, digest, proof refs, constraints, failClosed</text>

  <path class="arrow" d="M468 1111 H610"/>
  <path class="arrow" d="M836 538 V586"/>
  <path class="arrow" d="M836 670 V708"/>
  <path class="arrow" d="M836 792 V830"/>
  <path class="arrow" d="M836 914 V952"/>
  <path class="arrow" d="M836 1036 V1082"/>

  <text class="label" x="1182" y="466">Enforcement PEP, Customer Gate, Terminal Outcomes</text>
  <polygon class="decision" points="1340,536 1472,578 1340,620 1208,578"/>
  <text class="label" x="1280" y="574">Enforcement path</text>
  <polygon class="decision" points="1340,658 1472,700 1340,742 1208,700"/>
  <text class="label" x="1256" y="696">Presentation mode ok?</text>
  <polygon class="decision" points="1340,780 1472,822 1340,864 1208,822"/>
  <text class="label" x="1276" y="818">Offline verification</text>
  <polygon class="decision" points="1340,902 1472,944 1340,986 1208,944"/>
  <text class="label" x="1276" y="940">Online verification</text>
  <polygon class="decision" points="1340,1024 1472,1066 1340,1108 1208,1066"/>
  <text class="label" x="1280" y="1062">Enforcement result</text>
  <polygon class="decision" points="1340,1146 1472,1188 1340,1230 1208,1188"/>
  <text class="label" x="1290" y="1184">Customer gate</text>
  <polygon class="decision" points="1580,1080 1660,1120 1580,1160 1500,1120"/>
  <text class="label" x="1538" y="1116">Terminal split</text>
  <text class="tiny" x="1528" y="1132">proceed or hold?</text>
  <rect class="proceed" x="1668" y="1010" width="110" height="56"/>
  <text class="termText" x="1684" y="1045">PROCEED</text>
  <text class="tiny" x="1684" y="1061">allowed path</text>
  <rect class="hold" x="1668" y="1188" width="110" height="56"/>
  <text class="termText" x="1694" y="1223">HOLD</text>
  <text class="tiny" x="1680" y="1239">fail-closed</text>

  <path class="arrow" d="M1062 1111 H1208"/>
  <path class="arrow" d="M1340 620 V658"/>
  <path class="arrow" d="M1340 742 V780"/>
  <path class="arrow" d="M1340 864 V902"/>
  <path class="arrow" d="M1340 986 V1024"/>
  <path class="arrow" d="M1340 1108 V1146"/>
  <path class="arrow" d="M1472 1188 C1492 1188 1486 1120 1500 1120"/>
  <path class="arrow" d="M1660 1120 C1668 1120 1660 1038 1668 1038"/>
  <path class="arrow" d="M1660 1120 C1668 1120 1660 1216 1668 1216"/>

  <text class="label" x="60" y="1248">Shared Stores</text>
  <rect class="nodeRed" x="60" y="1270" width="190" height="56"/>
  <text class="label" x="82" y="1294">Shared Stores</text>
  <text class="body" x="82" y="1312">tenant / account / outbox</text>
  <rect class="nodeRed" x="286" y="1270" width="190" height="56"/>
  <text class="label" x="308" y="1294">Audit surfaces</text>
  <text class="body" x="308" y="1312">dashboard / review packet</text>
  <rect class="nodeRed" x="512" y="1270" width="190" height="56"/>
  <text class="label" x="534" y="1294">Proof surfaces</text>
  <text class="body" x="534" y="1312">signed envelopes / verify</text>
  <rect class="nodeGray" x="738" y="1270" width="190" height="56"/>
  <text class="label" x="760" y="1294">Support Surfaces</text>
  <text class="body" x="760" y="1312">proof / site / platform</text>

  <path class="dash" d="M155 1270 C155 1200 264 1200 264 1140"/>
  <path class="dash" d="M381 1270 C381 1208 836 1208 836 1140"/>
  <path class="dash" d="M607 1270 C607 1210 1340 1210 1340 1230"/>

  <text class="label" x="982" y="1248">Shadow-To-Policy Loop</text>
  <rect class="nodeBlue2" x="982" y="1270" width="120" height="50"/><text class="body" x="1002" y="1294">shadow event</text><text class="tiny" x="1002" y="1310">observed</text>
  <rect class="nodeBlue2" x="1130" y="1270" width="120" height="50"/><text class="body" x="1148" y="1294">action surface</text><text class="tiny" x="1148" y="1310">inventory</text>
  <rect class="nodeBlue2" x="1278" y="1270" width="120" height="50"/><text class="body" x="1296" y="1294">risk inventory</text><text class="tiny" x="1296" y="1310">class</text>
  <rect class="nodeBlue2" x="1426" y="1270" width="120" height="50"/><text class="body" x="1448" y="1294">candidate</text><text class="tiny" x="1448" y="1310">schema</text>
  <rect class="nodeBlue2" x="1574" y="1270" width="142" height="50"/><text class="body" x="1594" y="1294">review packet</text><text class="tiny" x="1594" y="1310">approval</text>
  <path class="dash" d="M1102 1295 H1130"/>
  <path class="dash" d="M1250 1295 H1278"/>
  <path class="dash" d="M1398 1295 H1426"/>
  <path class="dash" d="M1546 1295 H1574"/>
  <path class="dash" d="M1645 1270 C1600 1220 250 1220 155 1270"/>
  <text class="tiny" x="1188" y="1348">observed traffic -> candidate -> human-approved policy bundle only</text>

  <text class="label" x="60" y="1394">Source module tags</text>
  <rect class="chip" x="60" y="1410" width="112" height="30"/><text class="tiny" x="76" y="1430">src/api</text>
  <rect class="chip" x="182" y="1410" width="140" height="30"/><text class="tiny" x="198" y="1430">src/connectors</text>
  <rect class="chip" x="332" y="1410" width="198" height="30"/><text class="tiny" x="348" y="1430">src/consequence-admission</text>
  <rect class="chip" x="540" y="1410" width="214" height="30"/><text class="tiny" x="556" y="1430">src/crypto-authorization-core</text>
  <rect class="chip" x="764" y="1410" width="228" height="30"/><text class="tiny" x="780" y="1430">src/crypto-execution-admission</text>
  <rect class="chip" x="1002" y="1410" width="190" height="30"/><text class="tiny" x="1018" y="1430">src/crypto-intelligence</text>
  <rect class="chip" x="1202" y="1410" width="124" height="30"/><text class="tiny" x="1218" y="1430">src/domains</text>
  <rect class="chip" x="1336" y="1410" width="110" height="30"/><text class="tiny" x="1352" y="1430">src/filing</text>
  <rect class="chip" x="1456" y="1410" width="120" height="30"/><text class="tiny" x="1472" y="1430">src/financial</text>
  <rect class="chip" x="1586" y="1410" width="116" height="30"/><text class="tiny" x="1602" y="1430">src/identity</text>

  <rect class="chip" x="60" y="1448" width="126" height="30"/><text class="tiny" x="76" y="1468">src/platform</text>
  <rect class="chip" x="196" y="1448" width="150" height="30"/><text class="tiny" x="212" y="1468">src/proof-surface</text>
  <rect class="chip" x="356" y="1448" width="224" height="30"/><text class="tiny" x="372" y="1468">src/release-enforcement-plane</text>
  <rect class="chip" x="590" y="1448" width="156" height="30"/><text class="tiny" x="606" y="1468">src/release-kernel</text>
  <rect class="chip" x="756" y="1448" width="148" height="30"/><text class="tiny" x="772" y="1468">src/release-layer</text>
  <rect class="chip" x="914" y="1448" width="250" height="30"/><text class="tiny" x="930" y="1468">src/release-policy-control-plane</text>
  <rect class="chip" x="1174" y="1448" width="112" height="30"/><text class="tiny" x="1190" y="1468">src/service</text>
  <rect class="chip" x="1296" y="1448" width="124" height="30"/><text class="tiny" x="1312" y="1468">src/showcase</text>
  <rect class="chip" x="1430" y="1448" width="112" height="30"/><text class="tiny" x="1446" y="1468">src/signing</text>
  <rect class="chip" x="1552" y="1448" width="100" height="30"/><text class="tiny" x="1568" y="1468">src/utils</text>
</svg>
